<?xml version="1.0" standalone="no"?>
<!DOCTYPE svg PUBLIC "-//W3C//DTD SVG 20010904//EN"
 "http://www.w3.org/TR/2001/REC-SVG-20010904/DTD/svg10.dtd">
<svg version="1.0" xmlns="http://www.w3.org/2000/svg"
 width="85px" height="85px" 
 viewBox="0 0 12000.000000 12000.000000"
 preserveAspectRatio="xMidYMid meet"
 >
    <g transform="scale(150,150)">
		<path fill="#FFFFFF" d="M40,0c22.091,0,40,17.909,40,40S62.091,80,40,80S0,62.091,0,40S17.909,0,40,0z"/>
	</g>

<g transform="translate(2000.000000,9800.000000) scale(0.100000,-0.100000)"
fill="#000000" >
<path d="M40900 65808 c-3 -3 -984 -8 -2180 -12 -1196 -3 -2326 -8 -2510 -11
-184 -2 -560 -7 -835 -10 -275 -3 -592 -7 -705 -10 -113 -3 -326 -7 -475 -10
-148 -3 -344 -8 -435 -10 -91 -3 -266 -7 -390 -10 -124 -3 -277 -8 -340 -10
-63 -3 -198 -7 -300 -10 -102 -3 -232 -7 -290 -10 -58 -3 -172 -7 -255 -10
-175 -7 -562 -23 -685 -30 -47 -2 -143 -7 -215 -10 -71 -3 -200 -10 -285 -15
-85 -5 -207 -12 -270 -15 -308 -16 -1055 -65 -1225 -80 -27 -2 -88 -7 -135
-10 -96 -6 -559 -43 -635 -50 -27 -2 -135 -12 -240 -20 -169 -14 -294 -25
-450 -40 -27 -3 -144 -14 -260 -25 -265 -26 -756 -77 -855 -90 -41 -5 -156
-19 -255 -31 -99 -11 -191 -22 -205 -24 -14 -2 -52 -7 -85 -10 -132 -14 -817
-108 -1095 -151 -1878 -285 -3464 -654 -4975 -1158 -1053 -352 -1910 -703
-2825 -1160 -2448 -1223 -4304 -2774 -5790 -4841 -379 -527 -803 -1214 -1100
-1780 -34 -66 -89 -169 -120 -230 -83 -156 -272 -555 -383 -806 -812 -1835
-1385 -3950 -1651 -6094 -19 -154 -40 -327 -46 -385 -5 -58 -12 -123 -15 -145
-2 -22 -7 -67 -10 -100 -3 -33 -8 -78 -10 -100 -5 -49 -33 -391 -40 -495 -3
-41 -8 -97 -10 -125 -4 -48 -6 -82 -24 -410 -13 -225 -13 -427 -1 -555 79
-862 529 -1631 1227 -2100 430 -288 955 -457 1838 -590 110 -16 245 -37 300
-45 147 -22 735 -113 840 -130 338 -55 1199 -169 1735 -230 124 -14 243 -28
265 -30 501 -58 1563 -145 2215 -180 52 -3 136 -7 185 -10 264 -14 747 -33
1015 -40 124 -3 313 -7 420 -10 396 -10 2009 -13 2130 -5 500 36 872 123 1220
287 643 303 1145 840 1404 1503 83 213 151 475 171 660 4 36 9 72 10 82 6 28
30 294 39 423 15 210 24 378 31 580 22 634 39 1037 50 1175 2 30 7 93 10 140
3 47 8 105 10 130 6 69 14 177 20 260 3 41 8 98 10 125 3 28 7 75 10 105 55
617 144 1097 275 1489 242 723 669 1288 1282 1694 528 350 1072 564 2193 862
138 37 383 102 545 146 1646 443 3397 779 5075 974 22 3 135 16 250 29 275 32
957 100 1210 121 33 3 112 9 175 14 63 6 151 13 195 16 44 3 100 8 125 10 149
13 843 58 1080 70 63 3 142 8 175 10 33 2 121 7 195 10 74 3 176 8 225 10 50
2 158 7 240 10 83 3 197 8 255 10 58 3 186 7 285 10 99 3 243 8 320 10 521 18
1395 28 2420 29 1138 1 1505 -3 2330 -24 380 -10 485 -13 925 -30 412 -16 508
-20 770 -35 47 -3 132 -7 190 -10 58 -3 137 -7 175 -10 71 -5 116 -8 400 -25
88 -6 187 -12 220 -15 33 -3 152 -12 265 -20 113 -9 284 -22 380 -31 96 -8
204 -17 240 -19 36 -3 85 -7 110 -10 25 -3 68 -7 95 -10 28 -3 142 -14 255
-25 113 -11 268 -27 345 -35 77 -9 163 -18 190 -21 77 -8 113 -12 205 -23 47
-6 177 -22 290 -36 2031 -250 4012 -665 5820 -1217 954 -291 1357 -446 1705
-656 398 -240 754 -584 1034 -997 389 -575 535 -1055 626 -2065 3 -30 7 -77
10 -105 2 -27 11 -133 20 -235 8 -102 17 -210 20 -240 3 -30 12 -147 20 -260
8 -113 17 -234 20 -270 3 -36 9 -139 15 -230 6 -91 12 -194 15 -230 2 -36 7
-114 10 -175 3 -60 8 -146 10 -190 5 -74 17 -348 30 -645 18 -414 38 -612 90
-877 107 -540 347 -987 744 -1384 472 -470 996 -714 1706 -793 194 -22 284
-27 565 -36 263 -8 2139 -5 2290 4 47 2 186 7 310 11 124 3 241 8 260 10 19 2
114 6 210 10 96 3 202 8 235 10 33 3 107 7 165 10 322 16 928 58 1230 85 63 6
142 13 175 15 176 15 684 64 715 70 14 2 57 7 95 10 39 3 129 13 200 21 72 8
153 17 180 20 88 10 664 82 830 104 217 28 746 105 930 135 1064 172 1819 312
2059 381 909 262 1644 989 1910 1891 86 291 114 513 113 913 0 352 -8 461 -73
1035 -41 356 -43 380 -49 425 -2 19 -7 58 -10 85 -17 169 -81 662 -115 900
-492 3393 -1576 6260 -3221 8526 -830 1143 -1876 2198 -3064 3090 -855 642
-1767 1199 -2790 1704 -290 143 -325 159 -550 262 -1900 868 -4073 1509 -6460
1907 -785 131 -1743 263 -2575 356 -151 17 -293 33 -315 35 -202 25 -1260 124
-1600 150 -38 3 -119 10 -180 15 -126 11 -190 15 -400 30 -165 11 -261 18
-345 25 -30 2 -102 7 -160 10 -58 3 -134 8 -170 10 -167 12 -469 30 -665 40
-55 3 -134 7 -175 10 -41 2 -138 7 -215 10 -77 3 -171 8 -210 10 -97 6 -284
14 -445 20 -74 3 -173 7 -220 10 -47 3 -168 7 -270 10 -102 3 -239 8 -305 10
-154 6 -409 14 -650 20 -104 3 -269 7 -365 10 -274 8 -653 15 -1320 25 -692
11 -3892 25 -3900 18z m3120 -863 c74 -2 394 -6 710 -9 316 -4 636 -9 710 -11
74 -2 275 -7 445 -10 171 -3 366 -7 435 -10 69 -3 226 -7 350 -10 314 -8 1028
-32 1205 -40 55 -3 156 -7 225 -10 251 -11 567 -25 655 -30 50 -3 176 -9 280
-15 331 -17 388 -20 460 -25 187 -13 232 -15 390 -25 206 -12 315 -19 375 -25
25 -2 115 -9 200 -15 85 -6 182 -12 215 -15 33 -3 175 -14 315 -25 292 -23
282 -22 655 -55 289 -26 308 -27 485 -45 2966 -292 5327 -758 7415 -1464 1938
-654 3644 -1526 5090 -2601 550 -409 940 -748 1465 -1274 580 -580 991 -1065
1460 -1721 1395 -1949 2384 -4378 2915 -7155 131 -686 219 -1287 310 -2115 4
-38 21 -218 40 -420 5 -54 30 -379 40 -515 18 -251 10 -462 -26 -675 -111
-659 -509 -1197 -1084 -1466 -210 -98 -341 -136 -725 -208 -922 -176 -1595
-285 -2455 -400 -227 -31 -258 -35 -310 -41 -22 -3 -112 -14 -200 -25 -200
-25 -589 -68 -805 -90 -58 -6 -123 -13 -145 -15 -22 -3 -119 -12 -215 -20 -96
-9 -191 -18 -210 -20 -19 -2 -66 -6 -105 -9 -62 -5 -206 -17 -380 -31 -174
-15 -655 -46 -905 -60 -157 -8 -312 -17 -345 -20 -33 -2 -159 -7 -280 -10
-121 -4 -225 -8 -232 -10 -6 -2 -161 -7 -345 -10 -183 -4 -339 -8 -347 -11
-18 -6 -1599 -5 -1796 1 -513 16 -650 27 -864 71 -380 78 -695 246 -962 513
-284 284 -476 653 -543 1041 -20 118 -34 292 -41 510 -8 277 -15 457 -20 535
-2 39 -7 129 -10 200 -3 72 -8 153 -10 180 -2 28 -7 102 -10 165 -6 105 -18
306 -30 470 -2 36 -7 106 -10 155 -31 501 -40 630 -50 755 -2 30 -7 89 -10
130 -66 832 -175 1376 -370 1856 -353 867 -1024 1637 -1825 2096 -395 226
-984 443 -2089 768 -1649 485 -3537 878 -5306 1105 -110 14 -214 27 -231 30
-172 25 -1072 125 -1354 150 -72 6 -262 24 -320 30 -54 5 -634 52 -740 60 -41
3 -109 8 -150 10 -41 3 -102 7 -135 10 -71 6 -321 22 -455 30 -52 3 -162 9
-245 15 -82 5 -206 12 -275 15 -69 3 -150 7 -180 10 -30 2 -129 7 -220 10 -91
3 -190 7 -220 10 -30 2 -127 7 -215 10 -88 3 -205 8 -260 10 -55 3 -181 7
-280 10 -99 3 -236 7 -305 10 -225 9 -626 17 -1165 25 -523 8 -2121 4 -2305
-5 -52 -2 -241 -7 -420 -10 -179 -3 -455 -10 -615 -15 -159 -5 -366 -12 -460
-15 -93 -3 -206 -7 -250 -10 -44 -2 -147 -7 -230 -10 -202 -8 -751 -34 -850
-40 -44 -3 -199 -12 -345 -20 -146 -8 -290 -17 -320 -20 -30 -3 -93 -7 -140
-10 -47 -3 -110 -7 -140 -10 -30 -3 -93 -7 -140 -10 -119 -8 -687 -54 -730
-60 -19 -2 -64 -6 -100 -9 -86 -8 -381 -35 -439 -41 -25 -3 -91 -10 -146 -15
-55 -6 -118 -13 -140 -15 -22 -3 -143 -17 -270 -30 -242 -27 -599 -71 -900
-110 -753 -99 -1709 -259 -2455 -410 -454 -92 -754 -159 -1485 -331 -1385
-327 -2440 -660 -3111 -983 -896 -432 -1631 -1198 -2039 -2126 -149 -339 -250
-702 -314 -1130 -28 -189 -32 -220 -71 -590 -12 -116 -66 -749 -80 -930 -5
-77 -12 -169 -15 -205 -10 -138 -34 -511 -40 -625 -3 -66 -8 -136 -10 -155 -2
-19 -7 -102 -10 -185 -3 -82 -8 -172 -10 -200 -3 -27 -7 -120 -10 -205 -9
-238 -24 -505 -36 -610 -61 -577 -219 -935 -563 -1275 -337 -333 -752 -520
-1256 -566 -235 -22 -2717 -17 -3095 6 -33 2 -132 6 -220 10 -88 3 -243 10
-345 15 -102 6 -234 12 -295 15 -60 3 -135 8 -165 10 -30 2 -98 7 -150 10 -91
5 -142 8 -295 19 -38 3 -106 8 -150 11 -44 3 -100 8 -125 10 -25 3 -108 9
-185 15 -77 6 -160 13 -185 15 -25 3 -171 16 -325 30 -154 14 -298 28 -320 30
-22 3 -166 19 -320 35 -154 17 -296 32 -315 35 -19 2 -181 23 -360 45 -179 22
-514 68 -745 101 -532 76 -371 51 -1355 213 -118 20 -300 50 -405 67 -792 129
-1195 293 -1539 628 -350 342 -545 754 -601 1274 -8 72 -9 499 -1 559 3 23 8
77 11 118 8 105 20 213 60 540 19 157 44 371 55 475 289 2639 971 5064 1985
7060 851 1674 1850 2984 3185 4172 1154 1027 2580 1937 4135 2639 1991 898
4143 1508 6780 1923 441 69 825 121 1520 206 222 27 585 65 1150 120 46 5 425
38 570 50 218 18 470 37 730 55 165 11 332 23 370 25 39 3 225 14 415 25 463
26 503 29 740 40 320 15 405 19 545 25 72 3 171 8 220 10 50 3 162 7 250 10
88 3 205 7 260 10 55 3 186 7 290 10 105 3 226 7 270 10 44 2 199 7 345 10
146 3 290 8 320 10 30 3 195 7 365 10 171 4 348 8 395 10 47 2 306 7 575 10
270 4 496 8 502 10 7 3 417 7 910 11 494 4 900 9 903 12 5 4 6727 -8 7050 -13z"/>
<path d="M39490 52147 c-3 -2 -248 -7 -545 -11 -297 -4 -567 -9 -600 -11 -33
-2 -166 -6 -295 -10 -129 -3 -271 -8 -315 -10 -44 -2 -141 -7 -215 -10 -201
-8 -345 -15 -435 -20 -44 -3 -127 -7 -185 -10 -58 -3 -136 -8 -175 -10 -38 -3
-110 -7 -160 -10 -193 -11 -918 -65 -1088 -80 -29 -3 -104 -10 -167 -15 -137
-12 -144 -13 -470 -45 -291 -29 -260 -26 -610 -65 -617 -70 -1388 -176 -1905
-261 -1178 -193 -2039 -371 -3195 -659 -714 -179 -1264 -343 -1496 -448 -287
-130 -513 -291 -744 -528 -371 -381 -555 -779 -639 -1384 -20 -143 -31 -259
-91 -960 -16 -195 -32 -373 -35 -395 -2 -22 -12 -114 -20 -205 -9 -91 -25
-253 -36 -360 -11 -107 -26 -260 -34 -340 -8 -80 -17 -163 -20 -185 -6 -54 -7
-61 -70 -625 -124 -1112 -193 -1495 -355 -1981 -183 -548 -446 -976 -845
-1374 -442 -442 -954 -750 -1573 -949 -274 -88 -551 -156 -1135 -280 -509
-109 -645 -132 -1542 -267 -1139 -171 -1807 -382 -2407 -760 -694 -438 -1256
-1064 -1632 -1819 -231 -465 -368 -901 -566 -1810 -85 -388 -203 -897 -360
-1555 -51 -209 -158 -659 -240 -1000 -81 -341 -216 -906 -300 -1255 -83 -349
-164 -689 -180 -755 -117 -488 -307 -1285 -336 -1405 -19 -80 -94 -390 -165
-690 -213 -891 -393 -1645 -514 -2150 -63 -261 -175 -731 -250 -1045 -137
-572 -284 -1189 -331 -1385 -14 -58 -99 -415 -190 -795 -91 -379 -176 -737
-190 -795 -14 -58 -138 -575 -275 -1150 -137 -575 -284 -1187 -325 -1360 -42
-173 -91 -380 -110 -460 -146 -605 -204 -900 -230 -1165 -3 -38 -8 -78 -10
-88 -16 -87 -26 -393 -21 -632 6 -270 17 -408 51 -620 193 -1196 883 -2270
1906 -2967 695 -474 1468 -709 2478 -755 279 -13 2459 -4 2967 12 83 3 476 7
875 11 399 3 806 7 905 9 99 2 567 7 1040 10 473 4 863 9 866 11 4 2 163 4
355 5 192 0 680 4 1084 9 404 5 971 11 1260 14 289 4 721 9 960 11 239 3 1061
12 1825 20 765 8 1581 17 1815 20 234 3 650 7 925 10 275 3 698 7 940 10 783
9 1329 15 1875 20 294 3 697 7 895 10 198 3 641 7 985 10 344 3 875 8 1180 11
720 8 5222 8 5975 0 319 -3 834 -8 1145 -11 311 -3 736 -7 945 -10 209 -3 614
-7 900 -10 555 -6 1155 -12 1875 -20 245 -3 668 -7 940 -10 272 -3 689 -7 925
-10 237 -3 1049 -12 1805 -20 756 -8 1587 -17 1845 -20 259 -3 668 -7 910 -10
242 -3 652 -7 910 -10 470 -6 1801 -20 2780 -30 286 -3 696 -7 910 -10 215 -3
644 -7 955 -10 311 -3 696 -7 855 -10 1155 -19 2782 -26 3035 -12 1142 63
1995 376 2775 1021 152 126 453 426 577 576 317 384 533 745 713 1191 289 714
390 1471 300 2249 -32 272 -55 383 -244 1171 -17 68 -176 737 -355 1485 -179
749 -339 1417 -355 1485 -17 68 -104 435 -195 814 -91 380 -176 737 -190 795
-40 169 -184 771 -331 1385 -75 314 -187 784 -250 1045 -111 462 -324 1354
-540 2260 -59 245 -122 508 -140 585 -19 77 -95 397 -170 710 -75 314 -149
624 -165 690 -16 66 -162 678 -325 1360 -163 682 -337 1409 -386 1615 -160
667 -217 909 -284 1210 -291 1301 -407 1696 -635 2165 -221 452 -509 854 -875
1220 -497 498 -1040 835 -1692 1051 -414 137 -831 223 -1783 369 -571 88 -930
156 -1455 276 -837 192 -1354 380 -1837 668 -797 474 -1387 1272 -1617 2186
-47 187 -75 328 -121 620 -8 49 -54 438 -75 625 -22 204 -76 679 -90 790 -2
19 -7 60 -10 90 -3 30 -8 71 -10 90 -10 87 -16 148 -35 335 -11 110 -23 218
-25 240 -4 33 -21 206 -50 515 -3 30 -8 75 -10 100 -7 63 -13 129 -30 330 -21
239 -23 271 -30 380 -47 731 -131 1128 -314 1487 -114 225 -239 391 -428 573
-425 410 -988 660 -2028 904 -132 31 -413 97 -625 146 -1490 350 -2662 563
-4135 749 -341 44 -1065 122 -1335 145 -36 3 -135 13 -220 21 -161 15 -725 59
-890 70 -52 3 -120 8 -150 10 -102 8 -522 33 -670 40 -63 3 -153 7 -200 10
-83 4 -215 10 -435 20 -60 2 -189 7 -285 10 -96 3 -224 8 -285 10 -60 2 -236
7 -390 10 -154 3 -323 7 -375 10 -135 7 -1554 18 -1560 12z m1633 -852 c284
-3 527 -8 540 -10 12 -2 155 -6 317 -10 162 -4 297 -8 300 -10 3 -1 109 -6
235 -9 127 -4 248 -9 270 -11 40 -4 151 -10 375 -20 63 -3 142 -8 175 -10 33
-2 101 -7 150 -10 198 -12 637 -43 720 -50 33 -3 141 -12 240 -20 684 -57
1543 -151 2115 -230 1413 -196 2810 -466 4005 -775 105 -27 300 -74 435 -105
516 -118 747 -186 970 -285 603 -266 919 -743 975 -1470 7 -90 23 -294 30
-370 3 -30 9 -111 15 -180 6 -69 12 -145 15 -170 6 -67 14 -157 20 -230 5 -59
19 -218 46 -500 49 -532 134 -1310 193 -1780 31 -246 57 -439 71 -540 42 -298
56 -393 70 -483 142 -929 588 -1808 1255 -2475 612 -611 1369 -1010 2460
-1297 605 -158 1260 -289 2015 -400 1101 -163 1564 -282 2072 -535 850 -422
1439 -1137 1793 -2176 66 -193 124 -405 211 -769 92 -386 426 -1783 565 -2365
30 -124 70 -290 88 -370 19 -80 87 -363 151 -630 124 -519 196 -819 409 -1710
74 -311 187 -783 251 -1050 64 -267 177 -739 251 -1050 74 -311 159 -666 189
-790 30 -124 126 -529 215 -900 139 -581 230 -962 360 -1505 16 -66 162 -678
325 -1360 163 -682 345 -1445 405 -1695 406 -1695 821 -3437 834 -3505 24
-123 44 -261 53 -360 10 -115 10 -544 0 -653 -134 -1465 -1110 -2721 -2474
-3186 -399 -136 -746 -186 -1318 -190 -245 -1 -1716 12 -2005 19 -102 2 -511
7 -910 10 -399 3 -799 7 -890 10 -91 3 -525 7 -965 10 -440 3 -834 7 -875 10
-41 2 -455 7 -920 10 -465 3 -885 8 -935 10 -49 3 -450 7 -890 10 -440 3 -858
7 -930 10 -71 3 -474 7 -895 10 -421 3 -848 7 -950 10 -102 3 -491 7 -865 10
-374 3 -822 7 -995 10 -173 3 -551 7 -840 10 -596 6 -1107 11 -2260 25 -766 9
-1116 14 -1795 25 -165 2 -457 7 -650 10 -192 3 -489 7 -660 10 -1677 26
-2721 34 -4065 29 -685 -2 -1342 -6 -1460 -9 -118 -2 -532 -7 -920 -10 -388
-3 -817 -8 -955 -10 -137 -3 -565 -7 -950 -10 -385 -3 -799 -7 -920 -10 -121
-3 -539 -7 -930 -10 -390 -3 -804 -7 -920 -10 -115 -3 -529 -7 -920 -10 -390
-3 -807 -7 -925 -10 -118 -3 -537 -7 -930 -10 -393 -3 -805 -7 -915 -10 -110
-3 -526 -7 -925 -10 -399 -3 -804 -7 -900 -10 -96 -3 -506 -7 -910 -10 -404
-3 -829 -7 -945 -10 -115 -3 -509 -7 -875 -10 -366 -3 -791 -7 -945 -10 -154
-3 -568 -7 -920 -10 -352 -3 -759 -7 -905 -10 -146 -3 -560 -7 -920 -10 -360
-3 -783 -7 -940 -10 -157 -3 -553 -7 -880 -10 -591 -5 -808 -8 -1785 -22 -785
-12 -1387 -7 -1495 11 -14 3 -61 7 -105 11 -227 18 -551 78 -782 145 -1024
297 -1911 1122 -2317 2155 -120 306 -185 576 -221 920 -14 129 -13 622 0 725
4 25 13 101 21 170 40 340 106 661 293 1415 49 198 105 428 124 510 20 83 63
263 96 400 33 138 96 403 141 590 45 187 144 601 220 920 77 319 263 1100 415
1735 152 635 284 1191 295 1235 11 44 35 148 55 230 32 132 214 894 711 2975
75 311 212 885 305 1275 174 724 328 1369 469 1960 91 381 399 1670 436 1825
30 124 141 588 329 1375 75 314 154 651 176 750 193 862 336 1241 644 1705
429 645 1033 1130 1745 1403 359 137 681 206 1465 312 309 42 429 60 635 96
884 157 1944 412 2381 575 789 292 1465 773 1989 1415 507 621 800 1317 964
2294 53 318 90 601 166 1280 22 198 42 378 45 400 16 127 89 827 114 1100 17
176 33 340 35 365 5 44 24 271 66 785 25 302 25 298 57 460 87 446 287 760
628 989 105 71 312 168 479 225 232 80 1134 322 1713 460 478 115 1210 271
1638 350 61 11 171 31 245 45 681 126 1681 272 2480 361 124 14 241 27 260 30
33 4 603 60 720 70 30 3 105 9 165 15 61 5 173 14 250 20 77 6 163 13 190 15
28 2 86 7 130 10 44 3 105 8 135 10 63 5 158 11 390 25 91 6 197 12 235 15 39
2 122 7 185 10 105 5 164 8 390 20 41 2 154 7 250 10 96 3 209 8 250 10 41 2
190 7 330 11 140 4 282 8 315 9 33 1 308 5 610 10 303 4 551 8 552 9 4 3 1020
-3 1486 -9z"/>
<path d="M39090 43610 c-145 -7 -286 -17 -370 -25 -25 -2 -76 -7 -115 -10
-393 -32 -919 -111 -1340 -201 -1607 -343 -3133 -1073 -4700 -2247 -550 -413
-940 -751 -1410 -1221 -666 -667 -1200 -1336 -1678 -2103 -839 -1346 -1361
-2779 -1592 -4368 -35 -245 -79 -646 -90 -835 -4 -58 -8 -115 -10 -128 -26
-164 -26 -1435 0 -1670 2 -20 7 -80 10 -132 20 -326 69 -764 131 -1165 272
-1769 823 -3200 1755 -4556 216 -314 478 -654 740 -959 376 -439 874 -934
1334 -1326 1853 -1581 4185 -2622 6536 -2918 446 -56 750 -79 1244 -92 200 -5
741 7 890 21 22 2 85 6 140 10 115 7 406 33 450 40 17 2 57 7 90 10 124 13
427 57 620 90 1758 301 3456 980 4955 1979 1020 680 1897 1462 2656 2371 1529
1831 2495 4108 2723 6425 11 113 23 250 26 305 4 55 8 116 10 135 22 199 28
950 10 1200 -2 30 -7 114 -10 185 -35 714 -182 1579 -400 2351 -600 2125
-1904 4104 -3745 5684 -1945 1669 -4375 2755 -6865 3069 -233 29 -431 49 -745
72 -174 13 -1061 20 -1250 9z m845 -835 c165 -3 316 -7 335 -9 19 -2 80 -7
135 -10 1069 -71 2246 -336 3347 -755 1653 -628 3189 -1633 4425 -2894 1154
-1179 2026 -2554 2549 -4020 199 -559 349 -1163 448 -1807 35 -228 68 -521 81
-715 3 -49 8 -110 11 -135 10 -98 22 -685 18 -850 -20 -752 -82 -1306 -220
-1975 -174 -838 -436 -1629 -813 -2448 -68 -148 -255 -515 -351 -688 -412
-744 -871 -1392 -1445 -2039 -165 -186 -717 -738 -905 -905 -1657 -1470 -3699
-2469 -5845 -2859 -318 -58 -785 -120 -1060 -141 -44 -3 -102 -8 -130 -10
-178 -16 -491 -25 -815 -24 -417 2 -580 10 -955 44 -184 17 -177 17 -430 50
-1999 268 -3975 1108 -5623 2392 -1163 906 -2153 2044 -2817 3239 -497 892
-798 1727 -1019 2824 -95 473 -144 787 -201 1310 -7 64 -33 415 -40 550 -4 63
-9 135 -11 160 -2 25 -6 227 -7 450 -5 499 7 790 49 1270 32 376 106 845 199
1271 335 1535 993 2949 1952 4195 291 378 558 680 932 1054 786 785 1661 1453
2703 2063 1552 909 3150 1372 4868 1414 140 3 256 7 258 8 1 1 19 1 40 -1 20
-2 172 -6 337 -9z"/>
<path d="M39650 41030 c-1001 -80 -1907 -790 -2218 -1740 -56 -170 -93 -341
-109 -507 -12 -118 -8 -486 6 -588 116 -847 588 -1513 1343 -1896 269 -136
526 -219 823 -264 129 -20 450 -28 575 -14 583 62 1180 349 1600 769 283 282
479 600 603 977 89 274 127 501 127 776 0 394 -86 752 -264 1093 -331 635
-974 1133 -1702 1320 -249 63 -554 92 -784 74z m379 -846 c352 -53 658 -191
945 -426 703 -578 793 -1526 214 -2255 -224 -282 -549 -494 -900 -588 -273
-73 -604 -75 -880 -4 -333 84 -659 281 -873 526 -194 222 -289 417 -351 723
-24 121 -27 157 -28 355 -1 243 12 332 75 527 181 560 726 1027 1329 1138 118
22 339 24 469 4z"/>
<path d="M33640 37604 c-19 -2 -73 -9 -120 -15 -700 -85 -1382 -479 -1810
-1044 -261 -345 -426 -767 -470 -1210 -12 -121 -15 -395 -5 -490 40 -386 130
-696 290 -1000 413 -787 1268 -1307 2165 -1318 197 -3 323 8 480 39 753 149
1450 668 1790 1334 121 239 195 467 240 741 23 144 42 421 35 512 -2 34 -7
109 -10 167 -24 444 -185 891 -456 1266 -396 547 -949 889 -1619 999 -91 15
-436 28 -510 19z m480 -863 c143 -30 235 -62 365 -126 372 -182 648 -494 811
-916 116 -300 142 -644 74 -967 -78 -372 -289 -723 -581 -967 -234 -195 -490
-321 -771 -377 -94 -18 -145 -22 -298 -22 -159 1 -202 5 -306 27 -237 50 -427
129 -620 259 -127 85 -301 251 -392 376 -223 303 -344 669 -343 1042 0 260 47
478 151 695 243 506 786 897 1375 989 137 22 402 15 535 -13z"/>
<path d="M45690 37479 c-909 -53 -1752 -649 -2115 -1494 -123 -288 -181 -563
-192 -905 -30 -1002 450 -1836 1343 -2332 387 -215 776 -318 1204 -320 181 0
223 3 400 29 509 74 989 314 1351 673 426 424 667 980 709 1633 36 568 -118
1159 -419 1614 -479 722 -1376 1155 -2281 1102z m335 -839 c263 -31 514 -117
755 -259 130 -78 196 -129 304 -237 149 -149 246 -294 330 -493 109 -259 153
-503 143 -796 -16 -458 -171 -829 -472 -1131 -289 -290 -635 -437 -1060 -451
-318 -10 -560 37 -821 162 -503 242 -866 719 -965 1271 -28 154 -30 421 -6
566 92 540 422 975 917 1212 176 83 372 140 550 159 76 8 240 6 325 -3z"/>
<path d="M33360 30565 c-582 -63 -1106 -315 -1500 -721 -189 -195 -311 -370
-431 -619 -316 -660 -339 -1454 -62 -2155 128 -323 301 -580 554 -825 390
-377 865 -608 1446 -700 120 -20 471 -27 603 -14 448 47 901 231 1269 516 117
91 316 287 410 404 288 356 462 765 521 1219 18 143 24 414 11 559 -69 771
-427 1402 -1051 1848 -185 132 -462 279 -673 357 -328 122 -734 170 -1097 131z
m485 -841 c174 -23 373 -82 523 -155 620 -305 1001 -925 986 -1605 -6 -294
-82 -563 -225 -802 -251 -420 -709 -722 -1197 -792 -84 -12 -325 -15 -397 -5
-298 40 -565 140 -820 306 -137 89 -324 272 -407 399 -202 307 -301 647 -297
1024 1 183 17 303 59 461 158 595 595 1016 1186 1145 54 12 135 24 179 27 44
3 82 8 85 10 6 6 264 -4 325 -13z"/>
<path d="M45560 30466 c-557 -72 -1077 -333 -1496 -751 -290 -290 -473 -579
-593 -942 -50 -149 -103 -386 -116 -513 -3 -36 -8 -81 -10 -100 -17 -152 -12
-444 10 -604 2 -17 9 -67 15 -111 33 -231 142 -543 273 -780 117 -211 233
-362 426 -556 290 -289 583 -472 956 -594 392 -129 797 -153 1211 -70 451 91
886 304 1243 611 491 421 780 967 851 1609 15 135 12 443 -5 584 -70 566 -305
1071 -675 1455 -388 402 -879 655 -1460 751 -132 22 -493 28 -630 11z m603
-855 c586 -127 1033 -512 1240 -1071 123 -332 141 -712 51 -1047 -120 -449
-468 -843 -949 -1078 -253 -123 -478 -176 -750 -177 -325 -1 -602 84 -870 265
-131 89 -323 284 -414 421 -294 443 -380 931 -252 1428 47 180 111 327 214
490 239 379 664 680 1083 767 139 29 147 29 359 26 146 -3 212 -8 288 -24z"/>
<path d="M39585 26989 c-453 -29 -887 -184 -1305 -464 -269 -180 -441 -342
-620 -583 -258 -347 -432 -788 -478 -1212 -14 -123 -14 -409 -2 -525 25 -229
92 -483 184 -693 339 -781 1135 -1376 2031 -1517 159 -26 454 -31 615 -11
1003 123 1858 839 2150 1801 107 353 127 779 56 1175 -70 387 -254 792 -499
1095 -138 171 -373 379 -588 518 -357 232 -820 390 -1214 412 -55 3 -125 7
-155 9 -30 2 -109 0 -175 -5z m306 -849 c558 -57 1054 -365 1324 -821 64 -108
108 -215 141 -347 49 -194 58 -265 57 -497 0 -202 -2 -229 -26 -333 -37 -159
-78 -274 -141 -399 -75 -151 -162 -269 -296 -404 -374 -378 -841 -568 -1295
-529 -456 39 -866 231 -1194 560 -568 568 -615 1422 -114 2087 363 482 952
743 1544 683z"/>
</g>
</svg>
